<?xml version="1.0" standalone="no"?>
<!DOCTYPE svg PUBLIC "-//W3C//DTD SVG 20010904//EN"
 "http://www.w3.org/TR/2001/REC-SVG-20010904/DTD/svg10.dtd">
<svg version="1.0" xmlns="http://www.w3.org/2000/svg"
 width="256.000000pt" height="256.000000pt" viewBox="0 0 256.000000 256.000000"
 preserveAspectRatio="xMidYMid meet">
<metadata>
Created by potrace 1.11, written by Peter Selinger 2001-2013
</metadata>
<g transform="translate(0.000000,256.000000) scale(0.100000,-0.100000)"
fill="#000000" stroke="none">
<path d="M1280 1920 l0 -640 -640 0 -640 0 0 -640 0 -640 1280 0 1280 0 0
1280 0 1280 -640 0 -640 0 0 -640z m944 34 c9 -8 16 -24 16 -34 0 -10 -7 -26
-16 -34 -13 -14 -55 -16 -304 -16 -249 0 -291 2 -304 16 -9 8 -16 24 -16 34 0
10 7 26 16 34 13 14 55 16 304 16 249 0 291 -2 304 -16z m-1693 -1141 l109
-107 109 107 c59 59 113 107 120 107 6 0 20 -9 31 -20 11 -11 20 -25 20 -31 0
-7 -48 -61 -107 -120 l-107 -109 107 -109 c59 -59 107 -113 107 -120 0 -14
-37 -51 -51 -51 -7 0 -61 48 -120 107 l-109 107 -109 -107 c-59 -59 -113 -107
-120 -107 -14 0 -51 37 -51 51 0 7 48 61 107 120 l107 109 -107 109 c-59 59
-107 113 -107 120 0 14 37 51 51 51 7 0 61 -48 120 -107z m1697 -5 c17 -17 15
-44 -4 -62 -13 -14 -55 -16 -304 -16 -249 0 -291 2 -304 16 -19 18 -21 45 -4
62 17 17 599 17 616 0z m-4 -274 c19 -18 21 -45 4 -62 -17 -17 -599 -17 -616
0 -17 17 -15 44 4 62 13 14 55 16 304 16 249 0 291 -2 304 -16z"/>
</g>
</svg>
